<svg width="14" height="20" viewBox="0 0 14 20" fill="none" xmlns="http://www.w3.org/2000/svg">
<path d="M3.12439 1.23574L4.11073 0.920405C5.03656 0.625238 6.02381 1.10282 6.42073 2.03599L7.20814 3.89499C7.55098 4.70441 7.36123 5.65682 6.73698 6.24899L5.00081 7.89716C5.10714 8.88349 5.43898 9.85424 5.99448 10.8094C6.52228 11.7336 7.23017 12.5425 8.07623 13.1882L10.1616 12.4915C10.9527 12.2284 11.8135 12.5318 12.2975 13.2441L13.4277 14.9032C13.9915 15.7319 13.8906 16.8741 13.1912 17.5762L12.4414 18.3288C11.6952 19.0777 10.6291 19.35 9.64373 19.042C7.31631 18.316 5.17681 16.1609 3.22431 12.5767C1.26906 8.98707 0.578809 5.94007 1.15448 3.4394C1.39648 2.38707 2.14539 1.54832 3.12439 1.23574Z" fill="black"/>
</svg>
