<svg width="60" height="60" viewBox="0 0 60 60" fill="none" xmlns="http://www.w3.org/2000/svg">
<path d="M29.9002 0C16.9002 0 5.8002 8.4 1.7002 20H58.3002C54.1002 8.4 43.0002 0 29.9002 0Z" fill="#F2B200"/>
<path d="M29.9002 60C43.0002 60 54.1002 51.7 58.2002 40H1.7002C5.8002 51.7 16.9002 60 29.9002 60Z" fill="#83BF4F"/>
<path d="M1.7 20C0.6 23.1 0 26.5 0 30C0 33.5 0.6 36.9 1.7 40H58.3C59.4 36.9 60 33.5 60 30C60 26.5 59.4 23.1 58.3 20H1.7Z" fill="white"/>
<path d="M29.8999 38C34.3182 38 37.8999 34.4183 37.8999 30C37.8999 25.5817 34.3182 22 29.8999 22C25.4816 22 21.8999 25.5817 21.8999 30C21.8999 34.4183 25.4816 38 29.8999 38Z" fill="#428BC1"/>
<path d="M29.8999 37C33.7659 37 36.8999 33.866 36.8999 30C36.8999 26.134 33.7659 23 29.8999 23C26.0339 23 22.8999 26.134 22.8999 30C22.8999 33.866 26.0339 37 29.8999 37Z" fill="white"/>
<path d="M27.3 24C27.5762 24 27.8 23.7761 27.8 23.5C27.8 23.2239 27.5762 23 27.3 23C27.0239 23 26.8 23.2239 26.8 23.5C26.8 23.7761 27.0239 24 27.3 24Z" fill="#428BC1"/>
<path d="M25.7 24.8999C25.9761 24.8999 26.2 24.676 26.2 24.3999C26.2 24.1238 25.9761 23.8999 25.7 23.8999C25.4238 23.8999 25.2 24.1238 25.2 24.3999C25.2 24.676 25.4238 24.8999 25.7 24.8999Z" fill="#428BC1"/>
<path d="M24.4 26.2002C24.6762 26.2002 24.9 25.9763 24.9 25.7002C24.9 25.4241 24.6762 25.2002 24.4 25.2002C24.1239 25.2002 23.9 25.4241 23.9 25.7002C23.9 25.9763 24.1239 26.2002 24.4 26.2002Z" fill="#428BC1"/>
<path d="M23.5 27.8003C23.7761 27.8003 24 27.5764 24 27.3003C24 27.0242 23.7761 26.8003 23.5 26.8003C23.2239 26.8003 23 27.0242 23 27.3003C23 27.5764 23.2239 27.8003 23.5 27.8003Z" fill="#428BC1"/>
<path d="M23 29.6001C23.2761 29.6001 23.5 29.3762 23.5 29.1001C23.5 28.824 23.2761 28.6001 23 28.6001C22.7239 28.6001 22.5 28.824 22.5 29.1001C22.5 29.3762 22.7239 29.6001 23 29.6001Z" fill="#428BC1"/>
<path d="M23 31.3999C23.2761 31.3999 23.5 31.176 23.5 30.8999C23.5 30.6238 23.2761 30.3999 23 30.3999C22.7239 30.3999 22.5 30.6238 22.5 30.8999C22.5 31.176 22.7239 31.3999 23 31.3999Z" fill="#428BC1"/>
<path d="M23.5 33.2002C23.7761 33.2002 24 32.9763 24 32.7002C24 32.4241 23.7761 32.2002 23.5 32.2002C23.2239 32.2002 23 32.4241 23 32.7002C23 32.9763 23.2239 33.2002 23.5 33.2002Z" fill="#428BC1"/>
<path d="M24.4 34.8003C24.6762 34.8003 24.9 34.5764 24.9 34.3003C24.9 34.0242 24.6762 33.8003 24.4 33.8003C24.1239 33.8003 23.9 34.0242 23.9 34.3003C23.9 34.5764 24.1239 34.8003 24.4 34.8003Z" fill="#428BC1"/>
<path d="M25.7 36.1001C25.9761 36.1001 26.2 35.8762 26.2 35.6001C26.2 35.324 25.9761 35.1001 25.7 35.1001C25.4238 35.1001 25.2 35.324 25.2 35.6001C25.2 35.8762 25.4238 36.1001 25.7 36.1001Z" fill="#428BC1"/>
<path d="M27.3 37C27.5762 37 27.8 36.7761 27.8 36.5C27.8 36.2239 27.5762 36 27.3 36C27.0239 36 26.8 36.2239 26.8 36.5C26.8 36.7761 27.0239 37 27.3 37Z" fill="#428BC1"/>
<path d="M29 37.3999C29.2761 37.3999 29.5 37.176 29.5 36.8999C29.5 36.6238 29.2761 36.3999 29 36.3999C28.7239 36.3999 28.5 36.6238 28.5 36.8999C28.5 37.176 28.7239 37.3999 29 37.3999Z" fill="#428BC1"/>
<path d="M30.4 36.9999C30.4 36.6999 30.6 36.4999 30.8 36.3999C31.1 36.3999 31.3 36.5999 31.4 36.7999C31.4 37.0999 31.2 37.2999 31 37.3999C30.6 37.4999 30.4 37.2999 30.4 36.9999Z" fill="#428BC1"/>
<path d="M32.6 37C32.8761 37 33.1 36.7761 33.1 36.5C33.1 36.2239 32.8761 36 32.6 36C32.3238 36 32.1 36.2239 32.1 36.5C32.1 36.7761 32.3238 37 32.6 37Z" fill="#428BC1"/>
<path d="M34.2 36.1001C34.4761 36.1001 34.7 35.8762 34.7 35.6001C34.7 35.324 34.4761 35.1001 34.2 35.1001C33.9238 35.1001 33.7 35.324 33.7 35.6001C33.7 35.8762 33.9238 36.1001 34.2 36.1001Z" fill="#428BC1"/>
<path d="M35.5 34.8003C35.7761 34.8003 36 34.5764 36 34.3003C36 34.0242 35.7761 33.8003 35.5 33.8003C35.2239 33.8003 35 34.0242 35 34.3003C35 34.5764 35.2239 34.8003 35.5 34.8003Z" fill="#428BC1"/>
<path d="M36.4 33.2002C36.6762 33.2002 36.9 32.9763 36.9 32.7002C36.9 32.4241 36.6762 32.2002 36.4 32.2002C36.1239 32.2002 35.9 32.4241 35.9 32.7002C35.9 32.9763 36.1239 33.2002 36.4 33.2002Z" fill="#428BC1"/>
<path d="M36.9 31.3999C37.1762 31.3999 37.4 31.176 37.4 30.8999C37.4 30.6238 37.1762 30.3999 36.9 30.3999C36.6239 30.3999 36.4 30.6238 36.4 30.8999C36.4 31.176 36.6239 31.3999 36.9 31.3999Z" fill="#428BC1"/>
<path d="M36.9 29.6001C36.6 29.6001 36.4 29.4001 36.3 29.2001C36.3 28.9001 36.5 28.7001 36.7 28.6001C37 28.6001 37.2 28.8001 37.3 29.0001C37.4 29.3001 37.2 29.5001 36.9 29.6001Z" fill="#428BC1"/>
<path d="M36.4 27.8003C36.6762 27.8003 36.9 27.5764 36.9 27.3003C36.9 27.0242 36.6762 26.8003 36.4 26.8003C36.1239 26.8003 35.9 27.0242 35.9 27.3003C35.9 27.5764 36.1239 27.8003 36.4 27.8003Z" fill="#428BC1"/>
<path d="M35.5 26.2002C35.7761 26.2002 36 25.9763 36 25.7002C36 25.4241 35.7761 25.2002 35.5 25.2002C35.2239 25.2002 35 25.4241 35 25.7002C35 25.9763 35.2239 26.2002 35.5 26.2002Z" fill="#428BC1"/>
<path d="M34.2 24.8999C34.4761 24.8999 34.7 24.676 34.7 24.3999C34.7 24.1238 34.4761 23.8999 34.2 23.8999C33.9238 23.8999 33.7 24.1238 33.7 24.3999C33.7 24.676 33.9238 24.8999 34.2 24.8999Z" fill="#428BC1"/>
<path d="M33.1 23.6999C33 23.9999 32.7 24.0999 32.4 23.9999C32.1 23.8999 32 23.5999 32.1 23.2999C32.2 22.9999 32.5 22.8999 32.8 22.9999C33.1 23.1999 33.2 23.4999 33.1 23.6999Z" fill="#428BC1"/>
<path d="M31.3001 23.1001C31.3001 23.4001 31.0001 23.6001 30.7001 23.5001C30.4001 23.5001 30.2001 23.2001 30.3001 22.9001C30.3001 22.6001 30.6001 22.4001 30.9001 22.5001C31.2001 22.6001 31.4001 22.9001 31.3001 23.1001Z" fill="#428BC1"/>
<path d="M29.5 23.0002C29.5 23.3002 29.3 23.5002 29.1 23.6002C28.8 23.6002 28.6 23.4002 28.5 23.2002C28.5 22.9002 28.7 22.7002 28.9 22.6002C29.2 22.5002 29.5 22.7002 29.5 23.0002Z" fill="#428BC1"/>
<path d="M29.9 31.5C30.7285 31.5 31.4 30.8284 31.4 30C31.4 29.1716 30.7285 28.5 29.9 28.5C29.0716 28.5 28.4 29.1716 28.4 30C28.4 30.8284 29.0716 31.5 29.9 31.5Z" fill="#428BC1"/>
<path d="M29.9 23L29.7 27.3L29.9 30L30.1999 27.3L29.9 23Z" fill="#428BC1"/>
<path d="M28.1 23.2002L29 27.5002L29.9 30.0002L29.5 27.3002L28.1 23.2002Z" fill="#428BC1"/>
<path d="M26.4 23.8999L28.4 27.7999L29.9 29.9999L28.8 27.4999L26.4 23.8999Z" fill="#428BC1"/>
<path d="M25 25L27.9 28.3L29.9 30L28.2 27.9L25 25Z" fill="#428BC1"/>
<path d="M23.9 26.5L27.5 28.9L29.9 30L27.7 28.4L23.9 26.5Z" fill="#428BC1"/>
<path d="M23.2 28.2002L27.3 29.5002L29.9 30.0002L27.4 29.1002L23.2 28.2002Z" fill="#428BC1"/>
<path d="M22.9 30.0003L27.3 30.2003L29.9 30.0003L27.3 29.8003L22.9 30.0003Z" fill="#428BC1"/>
<path d="M23.2 31.8L27.4 30.9L29.9 30L27.3 30.5L23.2 31.8Z" fill="#428BC1"/>
<path d="M23.9 33.5L27.7 31.6L29.9 30L27.5 31.1L23.9 33.5Z" fill="#428BC1"/>
<path d="M25 34.9L28.2 32.1L29.9 30L27.9 31.7L25 34.9Z" fill="#428BC1"/>
<path d="M26.4 36.1L28.8 32.4L29.9 30L28.4 32.2L26.4 36.1Z" fill="#428BC1"/>
<path d="M28.1 36.8L29.5 32.7L29.9 30L29 32.5L28.1 36.8Z" fill="#428BC1"/>
<path d="M29.9 37L30.1999 32.7L29.9 30L29.7 32.7L29.9 37Z" fill="#428BC1"/>
<path d="M31.7 36.8L30.9 32.5L29.9 30L30.4 32.7L31.7 36.8Z" fill="#428BC1"/>
<path d="M33.4 36.1L31.5 32.2L29.9 30L31.1 32.5L33.4 36.1Z" fill="#428BC1"/>
<path d="M34.9 34.9L32 31.7L29.9 30L31.7 32.1L34.9 34.9Z" fill="#428BC1"/>
<path d="M36 33.5L32.4 31.1L29.9 30L32.1 31.6L36 33.5Z" fill="#428BC1"/>
<path d="M36.7 31.8L32.6 30.5L29.9 30L32.5 30.9L36.7 31.8Z" fill="#428BC1"/>
<path d="M36.9 30.0002L32.6 29.7002L29.9 30.0002L32.6 30.2002L36.9 30.0002Z" fill="#428BC1"/>
<path d="M36.7 28.2002L32.5 29.1002L29.9 30.0002L32.6 29.5002L36.7 28.2002Z" fill="#428BC1"/>
<path d="M36 26.5L32.1 28.4L29.9 30L32.4 28.9L36 26.5Z" fill="#428BC1"/>
<path d="M34.9 25.1001L31.7 27.9001L29.9 30.0001L32 28.3001L34.9 25.1001Z" fill="#428BC1"/>
<path d="M33.4 23.8999L31.1 27.5999L29.9 29.9999L31.5 27.7999L33.4 23.8999Z" fill="#428BC1"/>
<path d="M31.8 23.2002L30.4 27.3002L29.9 30.0002L30.9 27.5002L31.8 23.2002Z" fill="#428BC1"/>
</svg>
