<svg width="16" height="21" viewBox="0 0 16 21" fill="none" xmlns="http://www.w3.org/2000/svg">
<path d="M7.875 20.625C6.45406 19.413 5.13697 18.0842 3.9375 16.6527C2.1375 14.5028 9.88756e-07 11.301 9.88756e-07 8.25004C-0.000779647 6.69187 0.460698 5.16849 1.32603 3.8727C2.19136 2.5769 3.42166 1.56693 4.8612 0.970615C6.30075 0.374296 7.88484 0.218431 9.41301 0.522746C10.9412 0.82706 12.3447 1.57787 13.446 2.68017C14.1792 3.41013 14.7604 4.27827 15.1559 5.23434C15.5514 6.1904 15.7533 7.21541 15.75 8.25004C15.75 11.301 13.6125 14.5028 11.8125 16.6527C10.613 18.0842 9.29594 19.413 7.875 20.625ZM7.875 4.87504C6.9799 4.87504 6.12145 5.23062 5.48852 5.86356C4.85558 6.49649 4.5 7.35494 4.5 8.25004C4.5 9.14515 4.85558 10.0036 5.48852 10.6365C6.12145 11.2695 6.9799 11.625 7.875 11.625C8.77011 11.625 9.62855 11.2695 10.2615 10.6365C10.8944 10.0036 11.25 9.14515 11.25 8.25004C11.25 7.35494 10.8944 6.49649 10.2615 5.86356C9.62855 5.23062 8.77011 4.87504 7.875 4.87504Z" fill="white"/>
</svg>
