<svg width="20" height="15" viewBox="0 0 20 15" fill="none" xmlns="http://www.w3.org/2000/svg">
<path d="M18.5714 0.333008H1.42857C1.04969 0.333008 0.686328 0.483518 0.418419 0.751427C0.15051 1.01934 0 1.3827 0 1.76158V13.1902C0 13.569 0.15051 13.9324 0.418419 14.2003C0.686328 14.4682 1.04969 14.6187 1.42857 14.6187H18.5714C18.9503 14.6187 19.3137 14.4682 19.5816 14.2003C19.8495 13.9324 20 13.569 20 13.1902V1.76158C20 1.3827 19.8495 1.01934 19.5816 0.751427C19.3137 0.483518 18.9503 0.333008 18.5714 0.333008ZM17 1.76158L10 6.60444L3 1.76158H17ZM1.42857 13.1902V2.41158L9.59286 8.06158C9.71243 8.14453 9.85448 8.18898 10 8.18898C10.1455 8.18898 10.2876 8.14453 10.4071 8.06158L18.5714 2.41158V13.1902H1.42857Z" fill="white"/>
</svg>
