<svg width="1440" height="550" viewBox="0 0 1440 550" fill="none" xmlns="http://www.w3.org/2000/svg">
<path d="M-14.8706 379C-15.0596 377.545 -15.0502 375.924 -14.785 374.195L-7.37061 -42L1435.63 -49L1477.13 508.5C1416.46 532.167 1276.93 570.7 1204.13 535.5C1113.13 491.5 1173.13 379 1058.13 379C943.129 379 965.629 484.5 867.129 484.5C768.629 484.5 721.129 364.5 601.129 368C481.129 371.5 455.129 501 346.129 484.5C237.129 468 151.129 340.5 65.6294 340.5C4.98633 340.5 -12.7122 360.675 -14.785 374.195L-14.8706 379Z" fill="#EFF5F9"/>
</svg>
